<svg width="110" height="109" viewBox="0 0 110 109" fill="none" xmlns="http://www.w3.org/2000/svg">
<path d="M55 9.82363C69.685 9.82363 71.4267 9.87813 77.2292 10.1415C92.1342 10.8137 99.0963 17.8215 99.7746 32.482C100.04 38.2272 100.091 39.953 100.091 54.5045C100.091 69.0606 100.036 70.7819 99.7746 76.5271C99.0917 91.174 92.1479 98.1954 77.2292 98.8675C71.4267 99.131 69.6942 99.1855 55 99.1855C40.315 99.1855 38.5733 99.131 32.7754 98.8675C17.8338 98.1908 10.9083 91.1513 10.23 76.5225C9.96417 70.7773 9.90917 69.056 9.90917 54.5C9.90917 39.9485 9.96875 38.2272 10.23 32.4775C10.9129 17.8215 17.8567 10.8092 32.7754 10.137C38.5779 9.87813 40.315 9.82363 55 9.82363ZM55 0C40.0629 0 38.1929 0.0635833 32.3263 0.327C12.3521 1.23533 1.25125 12.2171 0.334583 32.0278C0.0641667 37.8457 0 39.6987 0 54.5C0 69.3013 0.0641667 71.1588 0.33 76.9722C1.24667 96.7647 12.3292 107.765 32.3217 108.673C38.1929 108.936 40.0629 109 55 109C69.9371 109 71.8117 108.936 77.6783 108.673C97.6342 107.765 108.763 96.7829 109.665 76.9722C109.936 71.1588 110 69.3013 110 54.5C110 39.6987 109.936 37.8457 109.67 32.0324C108.772 12.258 97.6754 1.23987 77.6829 0.331542C71.8117 0.0635833 69.9371 0 55 0ZM55 26.5142C39.4029 26.5142 26.7575 39.0447 26.7575 54.5C26.7575 69.9553 39.4029 82.4903 55 82.4903C70.5971 82.4903 83.2425 69.9598 83.2425 54.5C83.2425 39.0447 70.5971 26.5142 55 26.5142ZM55 72.6667C44.8754 72.6667 36.6667 64.5371 36.6667 54.5C36.6667 44.4675 44.8754 36.3333 55 36.3333C65.1246 36.3333 73.3333 44.4675 73.3333 54.5C73.3333 64.5371 65.1246 72.6667 55 72.6667ZM84.3608 18.8706C80.7125 18.8706 77.7563 21.8 77.7563 25.4106C77.7563 29.0212 80.7125 31.9506 84.3608 31.9506C88.0046 31.9506 90.9563 29.0212 90.9563 25.4106C90.9563 21.8 88.0046 18.8706 84.3608 18.8706Z" fill="white"/>
</svg>
